<svg transform="scale(1)" id="UT3eRhRmdv" xmlns="http://www.w3.org/2000/svg" xmlns:xlink="http://www.w3.org/1999/xlink" viewBox="0 0 500 500" class="pbimage_pbimage__wrapper__image__0LEis false"><title>Web Development</title><defs><style> .cls-1{fill:#000405;opacity:.05;} .cls-1, .cls-2, .cls-3, .cls-4, .cls-5, .cls-6, .cls-7, .cls-8, .cls-9, .cls-10, .cls-11, .cls-12, .cls-13, .cls-14, .cls-15, .cls-16, .cls-17, .cls-18, .cls-19, .cls-20, .cls-21, .cls-22, .cls-23{stroke-width:0px;} .cls-1, .cls-2, .cls-4{isolation:isolate;} .cls-2{fill:#020202;opacity:.15;} .cls-3{fill:url(#linear-gradient-UT3eRhRmdv);} .cls-4{opacity:.18;} .cls-4, .cls-23{fill:#68e1fd;} .cls-5{fill:url(#linear-gradient-11-UT3eRhRmdv);} .cls-6{fill:url(#linear-gradient-12-UT3eRhRmdv);} .cls-7{fill:url(#linear-gradient-13-UT3eRhRmdv);} .cls-8{fill:url(#linear-gradient-10-UT3eRhRmdv);} .cls-9{fill:url(#linear-gradient-14-UT3eRhRmdv);} .cls-24{opacity:.61;} .cls-10{fill:url(#linear-gradient-4-UT3eRhRmdv);} .cls-11{fill:url(#linear-gradient-2-UT3eRhRmdv);} .cls-12{fill:url(#linear-gradient-3-UT3eRhRmdv);} .cls-13{fill:url(#linear-gradient-8-UT3eRhRmdv);} .cls-14{fill:url(#linear-gradient-9-UT3eRhRmdv);} .cls-15{fill:url(#linear-gradient-7-UT3eRhRmdv);} .cls-16{fill:url(#linear-gradient-5-UT3eRhRmdv);} .cls-17{fill:url(#linear-gradient-6-UT3eRhRmdv);} .cls-18{fill:#231f20;} .cls-19{fill:#fff;} .cls-20{fill:#ffaa71;} .cls-21{fill:#ffb4a3;} .cls-22{fill:#fcfdff;}
 .cls-4, .cls-23{fill:#154d7b;}
 .cls-22{fill:#FCFDFF;}
 .cls-21{fill:#FFB4A3;}
 .cls-20{fill:#FFAA71;}
 .cls-19{fill:#FFFFFF;}
 .cls-18{fill:#231F20;}
 .cls-2{fill:#020202;}
 .cls-1{fill:#000405;}</style><linearGradient id="linear-gradient-UT3eRhRmdv" x1="-169.91" y1="-233.53" x2="-169.91" y2="-128.56" gradientTransform="translate(408.99 568.5)" gradientUnits="userSpaceOnUse"><stop offset="0" stop-color="#000" stop-opacity=".4" style="stop-color: rgb(0, 0, 0);"></stop><stop offset="1" stop-color="#fff" stop-opacity="0" style="stop-color: rgb(255, 255, 255);"></stop></linearGradient><linearGradient id="linear-gradient-2-UT3eRhRmdv" x1="-314.29" y1="-525.09" x2="33.39" y2="-132.88" gradientTransform="translate(408.73 552.43)" gradientUnits="userSpaceOnUse"><stop offset=".02" stop-color="#fff" stop-opacity="0" style="stop-color: rgb(255, 255, 255);"></stop><stop offset="1" stop-color="#fff" style="stop-color: rgb(255, 255, 255);"></stop></linearGradient><linearGradient id="linear-gradient-3-UT3eRhRmdv" x1="-192.3" y1="-82" x2="-179.93" y2="-620.2" gradientTransform="translate(408.99 568.5)" gradientUnits="userSpaceOnUse"><stop offset=".02" stop-color="#fff" stop-opacity="0" style="stop-color: rgb(255, 255, 255);"></stop><stop offset="1" stop-color="#fff" style="stop-color: rgb(255, 255, 255);"></stop></linearGradient><linearGradient id="linear-gradient-4-UT3eRhRmdv" x1="-273.97" y1="-24.44" x2="-261.6" y2="-562.65" xlink:href="#linear-gradient-3-UT3eRhRmdv"></linearGradient><linearGradient id="linear-gradient-5-UT3eRhRmdv" x1="-119.65" y1="-36.64" x2="-107.27" y2="-574.85" xlink:href="#linear-gradient-3-UT3eRhRmdv"></linearGradient><linearGradient id="linear-gradient-6-UT3eRhRmdv" x1="-119.91" y1="22.51" x2="-107.54" y2="-515.7" xlink:href="#linear-gradient-3-UT3eRhRmdv"></linearGradient><linearGradient id="linear-gradient-7-UT3eRhRmdv" x1="-115.89" y1="-112.19" x2="-103.52" y2="-650.39" xlink:href="#linear-gradient-3-UT3eRhRmdv"></linearGradient><linearGradient id="linear-gradient-8-UT3eRhRmdv" x1="-64.57" y1="-103.62" x2="-204.07" y2="-477.98" gradientTransform="translate(408.73 552.43)" gradientUnits="userSpaceOnUse"><stop offset=".58" stop-color="#000" style="stop-color: rgb(0, 0, 0);"></stop><stop offset=".78" stop-color="#000" stop-opacity=".16" style="stop-color: rgb(0, 0, 0);"></stop></linearGradient><linearGradient id="linear-gradient-9-UT3eRhRmdv" x1="-177.7" y1="-61.46" x2="-317.2" y2="-435.83" xlink:href="#linear-gradient-8-UT3eRhRmdv"></linearGradient><linearGradient id="linear-gradient-10-UT3eRhRmdv" x1="-11.38" y1="-123.44" x2="-150.88" y2="-497.81" xlink:href="#linear-gradient-8-UT3eRhRmdv"></linearGradient><linearGradient id="linear-gradient-11-UT3eRhRmdv" x1="-220.04" y1="-171.52" x2="-243.96" y2="-174.51" gradientTransform="translate(408.73 552.43)" gradientUnits="userSpaceOnUse"><stop offset="0" stop-color="#231f20" stop-opacity="0" style="stop-color: rgb(35, 31, 32);"></stop><stop offset="1" stop-color="#231f20" style="stop-color: rgb(35, 31, 32);"></stop></linearGradient><linearGradient id="linear-gradient-12-UT3eRhRmdv" x1="-228.93" y1="2599.57" x2="-232.12" y2="2591.12" gradientTransform="translate(408.99 2960.46) scale(1 -1)" xlink:href="#linear-gradient-11-UT3eRhRmdv"></linearGradient><linearGradient id="linear-gradient-13-UT3eRhRmdv" x1="-131.96" y1="-389.32" x2="-120.53" y2="-384.95" gradientTransform="translate(408.99 568.5)" xlink:href="#linear-gradient-11-UT3eRhRmdv"></linearGradient><linearGradient id="linear-gradient-14-UT3eRhRmdv" x1="-143.15" y1="-357.39" x2="-107.89" y2="-359.35" xlink:href="#linear-gradient-11-UT3eRhRmdv"></linearGradient></defs><g id="Background"><path class="cls-4" d="M491.79,361.14c-2.89,26.22-27.86,44.76-52.67,53.69-93.07,33.51-411.79,92.35-430.68-56.19-3.6-28.39,12.71-56.52,31.01-78.53,14.55-17.5,95.65-96.13,125.28-110.81,36.55-18.11,72.91-30.62,106.67-37.59,88.23-18.26,158.75,1.25,168.58,57.32,4.62,26.33-21.82,52.31-13.66,77.74,4.71,14.69,18.81,23.86,30.97,33.3,6.12,4.75,12.09,10.18,17.31,16.16,11.26,12.88,19,28.3,17.18,44.9Z"></path><path class="cls-1" d="M474.61,316.24c-4.38,14.96-12.84,28.13-24.28,36.58-22.72,16.78-113.65,13.82-113.65,38.66s-25.3,15.78-25.3,15.78h-159.29l29.1-87.74,90.22-187.81c88.23-18.26,158.75,1.25,168.58,57.32,4.62,26.33-21.82,52.31-13.66,77.74,4.71,14.69,18.81,23.86,30.97,33.3,6.12,4.75,12.09,10.18,17.31,16.16Z" fill="#000405"></path></g><g id="screen"><rect class="cls-23" x="152.1" y="397.54" width="170.99" height="9.75"></rect><rect class="cls-23" x="181.19" y="319.54" width="115.77" height="77.99"></rect><rect class="cls-23" x="181.19" y="319.54" width="115.77" height="77.99"></rect><rect class="cls-3" x="181.19" y="319.54" width="115.77" height="77.99"></rect><path class="cls-23" d="M450.33,98.88v204.26c0,24.61-19.95,44.56-44.56,44.56H66.47c-24.61,0-44.56-19.95-44.56-44.56V98.88c0-24.62,19.95-44.57,44.56-44.58h0s339.23,0,339.23,0c24.62-.03,44.6,19.9,44.63,44.52,0,0,0,.02,0,.03v.03Z"></path><path class="cls-11" d="M450.33,98.88v193.55H21.96V98.88c0-24.62,19.95-44.57,44.56-44.58h339.18c24.62-.03,44.6,19.9,44.63,44.52,0,0,0,.02,0,.03v.03Z"></path><rect class="cls-12" x="73.68" y="94.69" width="302.66" height="59.69"></rect><rect class="cls-10" x="73.68" y="162" width="137.48" height="120.21"></rect><rect class="cls-16" x="220.87" y="162" width="153.03" height="40.15"></rect><rect class="cls-17" x="220.87" y="209.76" width="153.03" height="40.15"></rect><rect class="cls-15" x="220.87" y="257.53" width="153.03" height="24.68"></rect></g><g id="stairs"><path class="cls-23" d="M308.08,425.93h6.53l-20.13-253.21-5.52,1.48,1.25,16.54-19.83,1.25-1.53-19.28-5.52,1.48,19.1,251.73h6.53l-2.28-28.72,19.15-1.18-.29-4.55-19.23,1.18-1.63-20.52,19.66-1.24-.28-4.53-19.73,1.22-1.63-20.56,19.27-1.22,6.1,80.13ZM270.74,196.51l19.83-1.27,1.56,20.56-19.74,1.27-1.65-20.57ZM272.73,221.59l19.73-1.27,1.56,20.65-19.64,1.23-1.66-20.61ZM274.74,246.71l19.63-1.26,1.67,21.95-19.59,1.19-1.7-21.88ZM276.83,273.11l19.55-1.17,1.45,19.15-19.47,1.22-1.53-19.2ZM278.71,296.85l19.46-1.24,1.56,20.59-19.38,1.22-1.63-20.57ZM282.34,342.52l-1.64-20.59,19.38-1.24,1.56,20.6-19.29,1.22Z"></path><path class="cls-23" d="M141.76,188.8v-16.08h-4.03v16.08h-19.59v4.98h19.59v222.61h4.03v-196.69l23.88-25.92h18.29v-5.01l-42.17.03ZM141.76,212.66v-18.88h18.17l-18.17,18.88Z"></path><path class="cls-23" d="M340.73,188.8v-16.08h-4.03v16.08h-38.7v4.98h16.8l21.89,23.73v198.88h4.04v-222.61h23.08v-5.01l-23.08.03ZM336.7,210.6l-16.19-16.82h16.17v16.82Z"></path><g class="cls-24"><path class="cls-13" d="M308.08,425.93h6.53l-20.13-253.21-5.52,1.48,1.25,16.54-19.83,1.25-1.53-19.28-5.52,1.48,19.1,251.73h6.53l-2.28-28.72,19.15-1.18-.29-4.55-19.23,1.18-1.63-20.52,19.66-1.24-.28-4.53-19.73,1.22-1.63-20.56,19.27-1.22,6.1,80.13ZM270.74,196.51l19.83-1.27,1.56,20.56-19.74,1.27-1.65-20.57ZM272.73,221.59l19.73-1.27,1.56,20.65-19.64,1.23-1.66-20.61ZM274.74,246.71l19.63-1.26,1.67,21.95-19.59,1.19-1.7-21.88ZM276.83,273.11l19.55-1.17,1.45,19.15-19.47,1.22-1.53-19.2ZM278.71,296.85l19.46-1.24,1.56,20.59-19.38,1.22-1.63-20.57ZM282.34,342.52l-1.64-20.59,19.38-1.24,1.56,20.6-19.29,1.22Z"></path><path class="cls-14" d="M141.76,188.8v-16.08h-4.03v16.08h-19.59v4.98h19.59v222.61h4.03v-196.69l23.88-25.92h18.29v-5.01l-42.17.03ZM141.76,212.66v-18.88h18.17l-18.17,18.88Z"></path><path class="cls-8" d="M340.73,188.8v-16.08h-4.03v16.08h-38.7v4.98h16.8l21.89,23.73v198.88h4.04v-222.61h23.08v-5.01l-23.08.03ZM336.7,210.6l-16.19-16.82h16.17v16.82Z"></path></g></g><g id="bubble_1"><path class="cls-19" d="M334.92,154.11h-23.68c-6.73,0-12.18-5.46-12.18-12.19v-5.19c0-6.73,5.45-12.18,12.18-12.18h23.68c6.73,0,12.18,5.45,12.19,12.17h0v5.19c0,6.73-5.46,12.19-12.19,12.19h0Z"></path><path class="cls-19" d="M301.79,160.53s9.68.47,12-6.48h7.18s-4.81,8.8-19.18,6.48Z"></path><path class="cls-2" d="M307.26,129.12h32.53c.46,0,.83.37.83.83v.68c0,.46-.37.83-.83.83h-32.53c-.46,0-.83-.37-.83-.83h0v-.68c0-.46.37-.83.83-.83h0Z"></path><path class="cls-2" d="M307.26,134.68h32.53c.46,0,.83.37.83.83v.68c0,.46-.37.83-.83.83h-32.53c-.46,0-.83-.37-.83-.83h0v-.68c0-.46.37-.83.83-.83h0Z"></path><path class="cls-2" d="M307.26,140.19h32.53c.46,0,.83.37.83.83v.68c0,.46-.37.83-.83.83h-32.53c-.46,0-.83-.37-.83-.83h0v-.68c0-.46.37-.83.83-.83h0Z"></path><path class="cls-2" d="M307.26,145.75h17.73c.46,0,.83.38.83.83v.68c0,.46-.37.83-.83.83h-17.73c-.46,0-.83-.37-.83-.83h0v-.68c0-.46.37-.83.83-.83h0Z"></path></g><g id="bubble_2"><path class="cls-19" d="M119.06,338.91h23.68c6.63-.02,12.02-5.33,12.14-11.96v-5.42c0-6.73-5.45-12.18-12.18-12.18h-23.64c-6.73,0-12.19,5.46-12.19,12.19h0v5.42c.13,6.64,5.55,11.95,12.19,11.95Z"></path><path class="cls-19" d="M152.1,345.49s-9.68.47-12-6.48h-7.1s4.61,8.7,19.1,6.48Z"></path><path class="cls-2" d="M146.63,316.25h-32.53c-.46,0-.83-.37-.83-.83h0v-.65c0-.46.37-.83.83-.83h32.53c.46,0,.83.37.83.83h0v.65c0,.46-.37.83-.83.83h0Z"></path><path class="cls-2" d="M146.63,321.86h-32.53c-.46,0-.83-.37-.83-.83h0v-.68c0-.46.38-.83.83-.83h32.53c.46,0,.83.37.83.83v.68c0,.46-.37.83-.83.83h0Z"></path><path class="cls-2" d="M146.63,327.38h-32.53c-.46,0-.83-.37-.83-.83v-.65c0-.46.37-.83.83-.83h32.53c.46,0,.83.37.83.83h0v.65c0,.46-.38.83-.83.83Z"></path><path class="cls-2" d="M146.63,332.94h-17.74c-.46,0-.83-.37-.83-.83h0v-.64c0-.46.36-.84.82-.85,0,0,0,0,.01,0h17.75c.46,0,.83.37.83.83h0v.64c0,.46-.37.83-.83.83h0Z"></path></g><g id="character_1"><path class="cls-23" d="M162.4,423.52l.48,4.16h9.64s.79-2.41-.98-3.01c-.96-.34-1.95-.59-2.96-.74l-6.18-.41Z"></path><path class="cls-20" d="M169.1,336.23c1.68,3.34,2.74,6.95,3.15,10.66-.55,2.64-3.8,3.24-3.8,3.24l.88,2.64-4.63,1.62-6.31-12.51s3.94-11.17,10.7-5.66Z"></path><path class="cls-18" d="M166.46,338.59c-.27,1.53-.27,3.1,0,4.63,0,0-1.48-1.44-1.62-.42s1.76,2.32,1.76,2.32l-.55,2.64-4.21,1.44s-5.47-8.89-4.64-10.61c.83-1.72,1.25-1.9,1.25-1.9,0,0-.47-1.3,2.17-2.22s6.16-2.05,8.21-.32c2.05,1.73,2.17.68,2.17.68,0,0,0,1.85-1.48,1.9.14.19-3.06.38-3.06,1.86Z"></path><path class="cls-23" d="M170.77,352.82h-7.78s-3.29.68-3.75,8.57c-.28,5.39-.28,10.78,0,16.17v12.93l3.75-1.25,13.9,3.11,1.37-18.94c2.91-.48,5.47-2.21,7-4.73,2.05-3.08,2.49-6.96,1.2-10.43l-9.68,5.1-.51-2.74c-.53-2.96-2.19-5.6-4.63-7.37l-.85-.41Z"></path><polygon class="cls-22" points="185.09 356.01 187.4 348.65 178.13 347.26 175.08 357.36 176.74 363.43 182.3 360.65 185.09 356.01"></polygon><path class="cls-20" d="M186.93,360.23c-.15-1.55-.8-3.02-1.85-4.17l-.46.47h-2.92l-.47,1.81,1.07,1.53c1.31,1.09,3.16,1.24,4.63.38Z"></path><path class="cls-5" d="M178.13,373.29s-7.41-2.78-7.41-7.41l.6,25.11,5.42,1.2,1.39-18.9Z"></path><polygon class="cls-18" points="176.74 388.86 178.13 411.94 176.33 423.98 170.77 423.98 169.84 404.11 166.59 395.76 168.91 423.98 162.43 424.45 159.19 387.01 162.89 385.62 176.74 388.86"></polygon><path class="cls-23" d="M171.05,423.98v3.25l10.14-.47s-.46-3.24-2.31-3.24c-1,.03-1.99-.21-2.87-.68l-4.96,1.14Z"></path><path class="cls-6" d="M182.3,360.65s-1.55,6.48-3.42,5.56c-1.06-.59-1.83-1.59-2.12-2.77l5.54-2.79Z"></path></g><g id="character_2"><path class="cls-23" d="M298.6,240.04l-.47,4.17h-9.64s-.79-2.41.97-3.01c.96-.34,1.96-.59,2.97-.75l6.16-.42Z"></path><path class="cls-21" d="M285.16,153.63c-.44,3.73-.21,7.52.68,11.17,1.09,1.41,2.87,2.12,4.63,1.85v2.78h4.61l1.97-13.9s-7.26-9.26-11.89-1.89Z"></path><path class="cls-18" d="M288.41,155.02c.73,1.45,1.19,3.02,1.37,4.64,0,0,.92-1.85,1.37-.93s-.92,2.78-.92,2.78l1.37,2.31h4.68s2.32-10.14,1.02-11.54c-1.3-1.4-2.17-1.37-2.17-1.37,0,0,0-1.37-2.78-1.37s-6.48,0-7.87,2.32c-1.39,2.32-1.85,1.37-1.85,1.37,0,0,.79,1.72,1.99,1.3.29-.07,3.34-.9,3.81.49Z"></path><path class="cls-23" d="M290.49,169.43h7.79s3.29.68,3.75,8.57c.28,5.39.28,10.79,0,16.17v12.93l-3.75-1.25-13.9,3.11-1.37-18.95c-2.92-.36-5.53-1.98-7.15-4.43-2.05-3.08-2.5-6.96-1.2-10.42l9.68,5.1.51-2.74c.53-2.96,2.19-5.61,4.63-7.37l1.02-.7Z"></path><polygon class="cls-22" points="275.94 172.58 273.63 165.17 282.85 163.77 285.95 173.88 284.33 180.24 278.8 177.36 275.94 172.58"></polygon><path class="cls-21" d="M274.09,176.73c.16-1.55.81-3.01,1.85-4.17l.47.46h2.95l.47,1.81-1.07,1.53c-1.32,1.11-3.19,1.26-4.66.37Z"></path><polygon class="cls-7" points="278.8 177.36 280.99 183.19 284.33 180.24 278.8 177.36"></polygon><path class="cls-9" d="M282.85,189.67s7.45-2.78,7.45-7.41l1.86,21.28-7.89,1.87-1.42-15.73Z"></path><polygon class="cls-18" points="284.24 205.38 282.85 228.46 284.7 240.5 290.26 240.5 291.19 220.63 294.43 212.28 292.12 240.5 298.6 240.97 301.79 203.53 298.13 202.14 284.24 205.38"></polygon><path class="cls-23" d="M289.98,240.5v4.62l-9.77-3.49s0-2.55,1.89-2.55c1.03,0,2.05.09,3.06.28l4.82,1.14Z"></path></g></svg>